# xmcd
#
# Track frame offsets:
#	150
#	18533
#	37498
#	50234
#	63952
#	82329
#	98459
#	112861
#	127269
#	143661
#	155753
#	172333
#	191115
#	205174
#	220287
#	237504
#	253199
#	269432
#	284063
#	295185
#
# Disc length: 4111 seconds
#
# Revision: 1
# Processed by: cddbd v1.5.1PL0 Copyright (c) Steve Scherf et al.
# Submitted via: audiograbber 1.83.01
#
DISCID=50100d14
DTITLE=Don WILLIAMS - Anthology - Disc 1
DYEAR=1900
DGENRE=Country
TTITLE0=I believe in you
TTITLE1=Good ole boys like me
TTITLE2=Falling again
TTITLE3=Miracles
TTITLE4=Lord, I hope this day is good
TTITLE5=If I needed you (& Emmylou HARRIS)
TTITLE6=Listen to the radio
TTITLE7=If Hollywood don't need you
TTITLE8=Love is on a roll
TTITLE9=Nobody but you
TTITLE10=That's the thing about love
TTITLE11=Maggie's dream
TTITLE12=Walkin' a broken heart
TTITLE13=We've good a good fire going
TTITLE14=Heartbeat in the darkness
TTITLE15=Then it's love
TTITLE16=I've been loved by the best
TTITLE17=Back in my younger days
TTITLE18=It must be love
TTITLE19=Love me over again
EXTD=
EXTT0=
EXTT1=
EXTT2=
EXTT3=
EXTT4=
EXTT5=
EXTT6=
EXTT7=
EXTT8=
EXTT9=
EXTT10=
EXTT11=
EXTT12=
EXTT13=
EXTT14=
EXTT15=
EXTT16=
EXTT17=
EXTT18=
EXTT19=
PLAYORDER=
